<?xml version="1.0" encoding="utf-8"?>
<!-- Generator: Adobe Illustrator 23.0.1, SVG Export Plug-In . SVG Version: 6.00 Build 0)  -->
<svg version="1.1" id="Layer_1" xmlns="http://www.w3.org/2000/svg" xmlns:xlink="http://www.w3.org/1999/xlink" x="0px" y="0px"
	 viewBox="0 0 1280 320" style="enable-background:new 0 0 1280 320;" xml:space="preserve">
<style type="text/css">
	.st0{fill:none;stroke:#A0A0A0;stroke-width:2;stroke-miterlimit:10;}
	.st1{fill:none;stroke:#DBDBDB;stroke-width:2;stroke-miterlimit:10;}
	.st2{fill:#E76BE4;}
	.st3{fill:#F68757;}
	.st4{fill:#46CD46;}
	.st5{fill:#BCBEC0;}
	.st6{fill:#FFFFFF;stroke:#CDCDCD;stroke-miterlimit:10;}
	.st7{fill:#A6A8AB;}
	.st8{fill:#FFFFFF;}
	.st9{fill:#C4C4C4;}
</style>
<path class="st0" d="M600.2,144.5c0,17.3,65.6,16.6,65.6,37.7"/>
<g>
	<path class="st1" d="M595.3,144.8c0,17.3,66.2,17.3,66.2,38.4"/>
</g>
<path class="st2" d="M665.9,181.2c-3.9,0-7.1,1.6-7.1,3v1v8.5v1c0,1.4,3.2,3,7.1,3c3.9,0,7.1-1.6,7.1-3v-1v-8.5v-1
	C673,182.8,669.8,181.2,665.9,181.2z"/>
<g>
	<path class="st1" d="M758.5,145c5.3,11.7,69.2,24.2,69.2,39.2"/>
</g>
<path class="st3" d="M832.4,182c-3.9,0-7.1,1.6-7.1,3v1v8.5v1c0,1.4,3.2,3,7.1,3c3.9,0,7.1-1.6,7.1-3v-1V186v-1
	C839.6,183.6,836.4,182,832.4,182z"/>
<g>
	<path class="st1" d="M351.6,144.8c-6.7,36.3,83.1,4.3,83.1,38.3"/>
</g>
<path class="st4" d="M436,179.3c-3.9,0-7.1,1.6-7.1,3v1v8.5v1c0,1.4,3.2,3,7.1,3s7.1-1.6,7.1-3v-1v-8.5v-1
	C443.1,180.9,439.9,179.3,436,179.3z"/>
<g>
	<path class="st1" d="M939.7,263.7c84,0,278.7,60.4,278.7-11.8"/>
</g>
<g>
	<path class="st1" d="M929.8,238.1c61.4,0,256.2,79.5,256.2,13.7"/>
</g>
<g>
	<path class="st1" d="M939.3,221.3c63.8,0,214.5,81.3,214.5,30.6"/>
</g>
<path class="st0" d="M932.7,254.5c84,0,265.6,50.5,265.6-21.7"/>
<path class="st0" d="M933.9,233.4c61.4,0,232.1,65.2,232.1-0.6"/>
<path class="st0" d="M937.8,210.7c34.6,0,195.9,72.8,195.9,22.1"/>
<g>
	<path class="st1" d="M138.6,117.2c0-58.9,172-105.3,172-60.2"/>
</g>
<g>
	<path class="st1" d="M101.3,118.5c21-81.2,228-109.2,228-61.5"/>
</g>
<g>
	<path class="st1" d="M58.5,118.5C89.3,30.1,349.4,0.6,349.4,55.9"/>
</g>
<path class="st0" d="M118.6,98.1c0-58.9,198.7-93.8,198.7-48.7"/>
<path class="st0" d="M81.2,99.4c21-81.2,253.5-97.7,253.5-50"/>
<path class="st0" d="M114.8,112.4c30.8-88.4,238-118,238-62.6"/>
<path class="st3" d="M352.4,48.8c-3.9,0-7.1,1.6-7.1,3v1v8.5v1c0,1.4,3.2,3,7.1,3s7.1-1.6,7.1-3v-1v-8.5v-1
	C359.5,50.4,356.3,48.8,352.4,48.8z"/>
<path class="st2" d="M334.7,48.8c-3.9,0-7.1,1.6-7.1,3v1v8.5v1c0,1.4,3.2,3,7.1,3c3.9,0,7.1-1.6,7.1-3v-1v-8.5v-1
	C341.8,50.4,338.6,48.8,334.7,48.8z"/>
<path class="st4" d="M317,48.8c-3.9,0-7.1,1.6-7.1,3v1v8.5v1c0,1.4,3.2,3,7.1,3s7.1-1.6,7.1-3v-1v-8.5v-1
	C324.2,50.4,321,48.8,317,48.8z"/>
<g>
	<path class="st5" d="M287.7,104.3c0,7.4-1.6,14.1-4.9,20c-3.3,5.9-7.4,10.4-12.4,13.6c-4.2,2.7-8.7,4.4-13.6,5.2
		c-4.9,0.8-10.1,1.2-15.6,1.2h-25v-80h24.8c5.6,0,10.9,0.4,15.8,1.1c4.9,0.7,9.5,2.5,13.8,5.2c5.3,3.4,9.4,7.9,12.5,13.6
		C286.2,89.8,287.7,96.6,287.7,104.3z M267.1,104.1c0-5.3-0.9-9.8-2.7-13.5c-1.8-3.7-4.6-6.7-8.4-8.8c-2.7-1.5-5.6-2.3-8.6-2.5
		c-3-0.1-6.6-0.2-10.7-0.2h-0.4v50.1h0.4c4.5,0,8.3-0.1,11.4-0.2c3.1-0.2,6-1.1,8.8-2.9c3.3-2.1,5.8-4.9,7.5-8.6
		S267.1,109.4,267.1,104.1z"/>
	<path class="st5" d="M299.6,144.2v-80h54.1v15.3h-34.1v14H351v15.3h-31.4v20.2h34.1v15.3H299.6z"/>
	<path class="st5" d="M424.2,145.6c-6.1,0-11.5-0.6-16.1-1.8c-4.6-1.2-8.9-2.6-12.9-4.4v-19h1.8c4,3.4,8.4,6,13.3,7.8
		s9.5,2.7,14.1,2.7c1.1,0,2.7-0.1,4.5-0.4c1.9-0.3,3.4-0.6,4.5-1.2c1.4-0.6,2.6-1.5,3.5-2.6c1-1.1,1.5-2.5,1.5-4.3
		c0-2-0.8-3.6-2.4-4.9c-1.6-1.3-3.5-2.2-5.6-2.7c-2.7-0.7-5.6-1.4-8.7-2c-3.1-0.6-6-1.4-8.7-2.4c-6.2-2.2-10.6-5.1-13.3-8.8
		c-2.7-3.7-4-8.3-4-13.9c0-7.5,3.2-13.5,9.5-18.2c6.3-4.6,14.3-7,23.7-7c4.8,0,9.5,0.5,14.2,1.5c4.7,1,8.9,2.3,12.6,3.9v18.3h-1.8
		c-3-2.5-6.6-4.7-10.9-6.4c-4.3-1.8-8.7-2.6-13.2-2.6c-1.8,0-3.3,0.1-4.7,0.4c-1.4,0.3-2.9,0.7-4.4,1.5c-1.3,0.6-2.3,1.4-3.2,2.6
		s-1.4,2.4-1.4,3.8c0,2,0.7,3.7,2.2,4.9c1.5,1.2,4.3,2.3,8.4,3.2c2.7,0.6,5.3,1.2,7.8,1.8c2.5,0.6,5.1,1.4,8,2.4
		c5.5,2,9.7,4.7,12.4,8.1c2.7,3.4,4.1,7.9,4.1,13.4c0,7.9-3.1,14.3-9.4,19.2C443.3,143.2,434.8,145.6,424.2,145.6z"/>
	<path class="st5" d="M522.5,144.2h-53.4v-80h20.1v64.7h33.3V144.2z"/>
	<path class="st5" d="M571.9,144.2h-43.1v-14h11.5v-52h-11.5v-14h43.1v14h-11.5v52h11.5V144.2z"/>
	<path class="st5" d="M667,144.2h-20v-53l-14.6,34.2h-13.7l-14.6-34.2v53h-18.9v-80h23.1l17.7,39.5l17.7-39.5H667V144.2z"/>
	<path class="st5" d="M765.2,144.2h-20v-53l-14.6,34.2H717l-14.6-34.2v53h-18.9v-80h23.1l17.7,39.5L742,64.2h23.1V144.2z"/>
	<path class="st5" d="M781.7,144.2v-80h54.1v15.3h-34.1v14h31.4v15.3h-31.4v20.2h34.1v15.3H781.7z"/>
	<path class="st5" d="M358.8,277.8c-12,0-21.5-3.6-28.6-10.9c-7.1-7.3-10.6-17.4-10.6-30.6c0-12.7,3.5-22.8,10.6-30.3
		c7.1-7.5,16.6-11.3,28.6-11.3c3.2,0,6.1,0.2,8.6,0.5c2.5,0.4,5,0.9,7.3,1.5c1.8,0.5,3.8,1.3,6,2.2c2.1,0.9,3.9,1.7,5.2,2.4v19.1h-2
		c-1-0.9-2.2-1.9-3.7-3.1c-1.5-1.2-3.1-2.4-5-3.5c-1.9-1.1-3.9-2.1-6.1-2.9c-2.2-0.8-4.6-1.2-7-1.2c-2.9,0-5.6,0.5-8,1.4
		c-2.4,0.9-4.7,2.5-6.9,4.8c-2,2-3.6,4.8-4.9,8.3c-1.3,3.5-1.9,7.6-1.9,12.3c0,5,0.7,9.2,2,12.5c1.3,3.4,3.1,6.1,5.2,8.2
		c2.1,2,4.4,3.5,7,4.4c2.6,0.9,5.1,1.3,7.7,1.3c2.6,0,5.2-0.4,7.6-1.3c2.4-0.9,4.4-1.9,6.1-2.9c1.8-1.1,3.4-2.2,4.7-3.4
		c1.4-1.1,2.5-2.2,3.5-3.1h1.8v18.8c-1.5,0.7-3.2,1.5-5.1,2.3c-1.9,0.9-3.9,1.6-6,2.2c-2.5,0.8-4.9,1.3-7,1.7
		C365.6,277.6,362.6,277.8,358.8,277.8z"/>
	<path class="st5" d="M470.5,236.2c0,12.9-3.5,23.1-10.4,30.5c-6.9,7.4-16.4,11.1-28.4,11.1c-12.1,0-21.5-3.8-28.4-11.3
		c-6.9-7.5-10.3-17.6-10.3-30.4c0-12.9,3.4-23,10.3-30.5c6.9-7.5,16.3-11.2,28.4-11.2c12,0,21.5,3.7,28.4,11.1
		C467.1,213.1,470.5,223.3,470.5,236.2z M449.8,236.2c0-4.8-0.5-8.8-1.5-12.2c-1-3.3-2.3-6.1-3.9-8.2c-1.7-2.2-3.7-3.8-5.8-4.7
		c-2.2-0.9-4.4-1.4-6.7-1.4c-2.5,0-4.7,0.4-6.7,1.3c-2,0.9-3.9,2.4-5.8,4.7c-1.6,2.1-3,4.8-4,8.3s-1.5,7.5-1.5,12.3
		c0,4.9,0.5,9,1.5,12.2c1,3.2,2.3,6,4,8.1c1.7,2.2,3.7,3.8,5.9,4.8c2.2,0.9,4.4,1.4,6.8,1.4c2.4,0,4.7-0.5,6.9-1.5
		c2.2-1,4.1-2.6,5.7-4.8c1.7-2.3,3-5,4-8.1C449.3,245.3,449.8,241.2,449.8,236.2z"/>
	<path class="st5" d="M564.1,276.2h-20v-53l-14.6,34.2h-13.7l-14.6-34.2v53h-18.9v-80h23.1l17.7,39.5l17.7-39.5h23.1V276.2z"/>
	<path class="st5" d="M642.2,221.5c0,3.7-0.6,7.3-1.8,10.6c-1.2,3.4-2.9,6.2-5.1,8.4c-1.4,1.4-2.9,2.7-4.5,3.9
		c-1.6,1.2-3.4,2.2-5.4,3c-2,0.8-4.1,1.5-6.4,1.9c-2.3,0.5-4.9,0.7-7.8,0.7h-10.5v26.2h-20.1v-80h31c4.6,0,8.6,0.4,12,1.3
		c3.3,0.8,6.4,2.2,9.1,4c3,2,5.3,4.7,7,8C641.4,212.9,642.2,216.8,642.2,221.5z M621.6,222c0-2.3-0.5-4.2-1.6-5.8
		c-1.1-1.6-2.4-2.7-3.9-3.4c-1.9-0.8-3.7-1.3-5.5-1.4c-1.7-0.1-4.1-0.2-7.1-0.2h-2.8v24h1.4c1.9,0,3.7,0,5.4-0.1
		c1.7,0,3.2-0.2,4.4-0.4c1.1-0.2,2.2-0.5,3.4-1c1.2-0.5,2.1-1.1,2.8-1.7c1.4-1.3,2.3-2.7,2.8-4.1C621.3,226.3,621.6,224.4,621.6,222
		z"/>
	<path class="st5" d="M685.3,277.9c-10.7,0-19-2.6-24.8-7.8c-5.8-5.2-8.7-12.8-8.7-22.8v-51.1h20.1v49.9c0,5.6,1,9.7,3.1,12.4
		c2.1,2.7,5.5,4.1,10.2,4.1c4.6,0,8-1.3,10.2-3.9c2.2-2.6,3.3-6.8,3.3-12.6v-49.9h20.1v51c0,9.8-2.8,17.4-8.5,22.7
		C704.7,275.2,696.3,277.9,685.3,277.9z"/>
	<path class="st5" d="M749.6,276.2v-64.7h-23.6v-15.3h67.4v15.3h-23.6v64.7H749.6z"/>
	<path class="st5" d="M801.5,276.2v-80h54.1v15.3h-34.1v14h31.4v15.3h-31.4v20.2h34.1v15.3H801.5z"/>
	<path class="st5" d="M943.2,276.2h-24.5l-22.3-29.3h-7.2v29.3h-20v-80h32.2c4.4,0,8.3,0.3,11.6,0.8c3.3,0.6,6.3,1.7,9.1,3.5
		c2.9,1.8,5.1,4.1,6.8,7c1.7,2.8,2.5,6.4,2.5,10.7c0,6.1-1.4,11.1-4.1,14.9c-2.8,3.8-6.4,6.8-11.1,9.1L943.2,276.2z M910.8,220.7
		c0-2-0.4-3.7-1.2-5.2c-0.8-1.5-2-2.6-3.8-3.4c-1.3-0.5-2.7-0.9-4.2-1c-1.5-0.1-3.5-0.2-5.7-0.2h-6.7v21.5h5.7
		c2.8,0,5.2-0.2,7.1-0.5c2-0.3,3.6-1.1,5-2.2c1.3-1,2.2-2.2,2.9-3.6C910.5,224.8,910.8,223,910.8,220.7z"/>
</g>
<g>
	<image style="overflow:visible;" width="802" height="289" xlink:href="34196D83.png"  transform="matrix(1 0 0 1 190 32)">
	</image>
	<g>
		<g>
			<path class="st6" d="M294.7,104.7c0,7.4-1.6,14.1-4.9,20c-3.3,5.9-7.4,10.4-12.4,13.6c-4.2,2.7-8.7,4.4-13.6,5.2
				c-4.9,0.8-10.1,1.2-15.6,1.2h-25v-80h24.8c5.6,0,10.9,0.4,15.8,1.1c4.9,0.7,9.5,2.5,13.8,5.2c5.3,3.4,9.4,7.9,12.5,13.6
				C293.2,90.2,294.7,97,294.7,104.7z M274.1,104.5c0-5.3-0.9-9.8-2.7-13.5c-1.8-3.7-4.6-6.7-8.4-8.8c-2.7-1.5-5.6-2.3-8.6-2.5
				c-3-0.1-6.6-0.2-10.7-0.2h-0.4v50.1h0.4c4.5,0,8.3-0.1,11.4-0.2c3.1-0.2,6-1.1,8.8-2.9c3.3-2.1,5.8-4.9,7.5-8.6
				S274.1,109.8,274.1,104.5z"/>
			<path class="st6" d="M306.6,144.6v-80h54.1v15.3h-34.1v14H358v15.3h-31.4v20.2h34.1v15.3H306.6z"/>
			<path class="st6" d="M431.2,146c-6.1,0-11.5-0.6-16.1-1.8c-4.6-1.2-8.9-2.6-12.9-4.4v-19h1.8c4,3.4,8.4,6,13.3,7.8
				s9.5,2.7,14.1,2.7c1.1,0,2.7-0.1,4.5-0.4c1.9-0.3,3.4-0.6,4.5-1.2c1.4-0.6,2.6-1.5,3.5-2.6c1-1.1,1.5-2.5,1.5-4.3
				c0-2-0.8-3.6-2.4-4.9c-1.6-1.3-3.5-2.2-5.6-2.7c-2.7-0.7-5.6-1.4-8.7-2c-3.1-0.6-6-1.4-8.7-2.4c-6.2-2.2-10.6-5.1-13.3-8.8
				c-2.7-3.7-4-8.3-4-13.9c0-7.5,3.2-13.5,9.5-18.2c6.3-4.6,14.3-7,23.7-7c4.8,0,9.5,0.5,14.2,1.5c4.7,1,8.9,2.3,12.6,3.9v18.3h-1.8
				c-3-2.5-6.6-4.7-10.9-6.4c-4.3-1.8-8.7-2.6-13.2-2.6c-1.8,0-3.3,0.1-4.7,0.4c-1.4,0.3-2.9,0.7-4.4,1.5c-1.3,0.6-2.3,1.4-3.2,2.6
				s-1.4,2.4-1.4,3.8c0,2,0.7,3.7,2.2,4.9c1.5,1.2,4.3,2.3,8.4,3.2c2.7,0.6,5.3,1.2,7.8,1.8c2.5,0.6,5.1,1.4,8,2.4
				c5.5,2,9.7,4.7,12.4,8.1c2.7,3.4,4.1,7.9,4.1,13.4c0,7.9-3.1,14.3-9.4,19.2C450.3,143.6,441.8,146,431.2,146z"/>
			<path class="st6" d="M529.5,144.6h-53.4v-80h20.1v64.7h33.3V144.6z"/>
			<path class="st6" d="M578.9,144.6h-43.1v-14h11.5v-52h-11.5v-14h43.1v14h-11.5v52h11.5V144.6z"/>
			<path class="st6" d="M674,144.6h-20v-53l-14.6,34.2h-13.7l-14.6-34.2v53h-18.9v-80h23.1l17.7,39.5l17.7-39.5H674V144.6z"/>
			<path class="st6" d="M772.2,144.6h-20v-53l-14.6,34.2H724l-14.6-34.2v53h-18.9v-80h23.1l17.7,39.5L749,64.6h23.1V144.6z"/>
			<path class="st6" d="M788.7,144.6v-80h54.1v15.3h-34.1v14h31.4v15.3h-31.4v20.2h34.1v15.3H788.7z"/>
			<path class="st6" d="M365.8,278.2c-12,0-21.5-3.6-28.6-10.9c-7.1-7.3-10.6-17.4-10.6-30.6c0-12.7,3.5-22.8,10.6-30.3
				c7.1-7.5,16.6-11.3,28.6-11.3c3.2,0,6.1,0.2,8.6,0.5c2.5,0.4,5,0.9,7.3,1.5c1.8,0.5,3.8,1.3,6,2.2c2.1,0.9,3.9,1.7,5.2,2.4v19.1
				h-2c-1-0.9-2.2-1.9-3.7-3.1c-1.5-1.2-3.1-2.4-5-3.5c-1.9-1.1-3.9-2.1-6.1-2.9c-2.2-0.8-4.6-1.2-7-1.2c-2.9,0-5.6,0.5-8,1.4
				c-2.4,0.9-4.7,2.5-6.9,4.8c-2,2-3.6,4.8-4.9,8.3c-1.3,3.5-1.9,7.6-1.9,12.3c0,5,0.7,9.2,2,12.5c1.3,3.4,3.1,6.1,5.2,8.2
				c2.1,2,4.4,3.5,7,4.4c2.6,0.9,5.1,1.3,7.7,1.3c2.6,0,5.2-0.4,7.6-1.3c2.4-0.9,4.4-1.9,6.1-2.9c1.8-1.1,3.4-2.2,4.7-3.4
				c1.4-1.1,2.5-2.2,3.5-3.1h1.8v18.8c-1.5,0.7-3.2,1.5-5.1,2.3c-1.9,0.9-3.9,1.6-6,2.2c-2.5,0.8-4.9,1.3-7,1.7
				C372.6,278,369.6,278.2,365.8,278.2z"/>
			<path class="st6" d="M477.5,236.6c0,12.9-3.5,23.1-10.4,30.5c-6.9,7.4-16.4,11.1-28.4,11.1c-12.1,0-21.5-3.8-28.4-11.3
				c-6.9-7.5-10.3-17.6-10.3-30.4c0-12.9,3.4-23,10.3-30.5c6.9-7.5,16.3-11.2,28.4-11.2c12,0,21.5,3.7,28.4,11.1
				C474.1,213.5,477.5,223.7,477.5,236.6z M456.8,236.6c0-4.8-0.5-8.8-1.5-12.2c-1-3.3-2.3-6.1-3.9-8.2c-1.7-2.2-3.7-3.8-5.8-4.7
				c-2.2-0.9-4.4-1.4-6.7-1.4c-2.5,0-4.7,0.4-6.7,1.3c-2,0.9-3.9,2.4-5.8,4.7c-1.6,2.1-3,4.8-4,8.3s-1.5,7.5-1.5,12.3
				c0,4.9,0.5,9,1.5,12.2c1,3.2,2.3,6,4,8.1c1.7,2.2,3.7,3.8,5.9,4.8c2.2,0.9,4.4,1.4,6.8,1.4c2.4,0,4.7-0.5,6.9-1.5
				c2.2-1,4.1-2.6,5.7-4.8c1.7-2.3,3-5,4-8.1C456.3,245.7,456.8,241.6,456.8,236.6z"/>
			<path class="st6" d="M571.1,276.6h-20v-53l-14.6,34.2h-13.7l-14.6-34.2v53h-18.9v-80h23.1l17.7,39.5l17.7-39.5h23.1V276.6z"/>
			<path class="st6" d="M649.2,221.9c0,3.7-0.6,7.3-1.8,10.6c-1.2,3.4-2.9,6.2-5.1,8.4c-1.4,1.4-2.9,2.7-4.5,3.9
				c-1.6,1.2-3.4,2.2-5.4,3c-2,0.8-4.1,1.5-6.4,1.9c-2.3,0.5-4.9,0.7-7.8,0.7h-10.5v26.2h-20.1v-80h31c4.6,0,8.6,0.4,12,1.3
				c3.3,0.8,6.4,2.2,9.1,4c3,2,5.3,4.7,7,8C648.4,213.3,649.2,217.2,649.2,221.9z M628.6,222.4c0-2.3-0.5-4.2-1.6-5.8
				c-1.1-1.6-2.4-2.7-3.9-3.4c-1.9-0.8-3.7-1.3-5.5-1.4c-1.7-0.1-4.1-0.2-7.1-0.2h-2.8v24h1.4c1.9,0,3.7,0,5.4-0.1
				c1.7,0,3.2-0.2,4.4-0.4c1.1-0.2,2.2-0.5,3.4-1c1.2-0.5,2.1-1.1,2.8-1.7c1.4-1.3,2.3-2.7,2.8-4.1
				C628.3,226.7,628.6,224.8,628.6,222.4z"/>
			<path class="st6" d="M692.3,278.3c-10.7,0-19-2.6-24.8-7.8c-5.8-5.2-8.7-12.8-8.7-22.8v-51.1h20.1v49.9c0,5.6,1,9.7,3.1,12.4
				c2.1,2.7,5.5,4.1,10.2,4.1c4.6,0,8-1.3,10.2-3.9c2.2-2.6,3.3-6.8,3.3-12.6v-49.9h20.1v51c0,9.8-2.8,17.4-8.5,22.7
				C711.7,275.6,703.3,278.3,692.3,278.3z"/>
			<path class="st6" d="M756.6,276.6v-64.7h-23.6v-15.3h67.4v15.3h-23.6v64.7H756.6z"/>
			<path class="st6" d="M808.5,276.6v-80h54.1v15.3h-34.1v14h31.4v15.3h-31.4v20.2h34.1v15.3H808.5z"/>
			<path class="st6" d="M950.2,276.6h-24.5l-22.3-29.3h-7.2v29.3h-20v-80h32.2c4.4,0,8.3,0.3,11.6,0.8c3.3,0.6,6.3,1.7,9.1,3.5
				c2.9,1.8,5.1,4.1,6.8,7c1.7,2.8,2.5,6.4,2.5,10.7c0,6.1-1.4,11.1-4.1,14.9c-2.8,3.8-6.4,6.8-11.1,9.1L950.2,276.6z M917.8,221.1
				c0-2-0.4-3.7-1.2-5.2c-0.8-1.5-2-2.6-3.8-3.4c-1.3-0.5-2.7-0.9-4.2-1c-1.5-0.1-3.5-0.2-5.7-0.2h-6.7v21.5h5.7
				c2.8,0,5.2-0.2,7.1-0.5c2-0.3,3.6-1.1,5-2.2c1.3-1,2.2-2.2,2.9-3.6C917.5,225.2,917.8,223.4,917.8,221.1z"/>
		</g>
	</g>
</g>
<polygon class="st7" points="1214.4,225.2 1102.3,225.2 1102.3,113.1 1117.4,98.1 1229.4,98.1 1229.4,210.2 "/>
<rect x="1117.4" y="98.1" class="st8" width="112" height="112"/>
<polygon class="st9" points="1117.4,98.1 1102.3,113.1 1102.3,225.2 1117.4,210.2 "/>
<path class="st3" d="M1198.3,216.3c-3.9,0-7.1,1.6-7.1,3v1v8.5v1c0,1.4,3.2,3,7.1,3s7.1-1.6,7.1-3v-1v-8.5v-1
	C1205.4,217.9,1202.2,216.3,1198.3,216.3z"/>
<path class="st2" d="M1166,216.3c-3.9,0-7.1,1.6-7.1,3v1v8.5v1c0,1.4,3.2,3,7.1,3s7.1-1.6,7.1-3v-1v-8.5v-1
	C1173.1,217.9,1170,216.3,1166,216.3z"/>
<path class="st4" d="M1133.7,216.3c-3.9,0-7.1,1.6-7.1,3v1v8.5v1c0,1.4,3.2,3,7.1,3s7.1-1.6,7.1-3v-1v-8.5v-1
	C1140.9,217.9,1137.7,216.3,1133.7,216.3z"/>
<path id="XMLID_1_" class="st7" d="M1145.5,144.8v18.6h12.4l15.5,15.5v-49.6l-15.5,15.5L1145.5,144.8L1145.5,144.8z M1187.3,154.2
	c0-5.5-3.2-10.2-7.8-12.5v25C1184.2,164.4,1187.3,159.6,1187.3,154.2z M1179.6,126.9v6.4c9,2.7,15.5,11,15.5,20.8
	s-6.5,18.2-15.5,20.8v6.4c12.4-2.8,21.7-13.9,21.7-27.2S1192,129.8,1179.6,126.9z"/>
<path class="st0" d="M347.2,144.8c-6.7,24.3,88.8,12.2,88.8,35"/>
<path class="st0" d="M763.1,145c5.3,11.7,69.4,22.6,69.4,37.6"/>
<polygon class="st7" points="127.1,225.2 15.1,225.2 15.1,113.1 30.1,98.1 142.2,98.1 142.2,210.2 "/>
<rect x="30.1" y="98.1" class="st8" width="112" height="112"/>
<polygon class="st9" points="30.1,98.1 15.1,113.1 15.1,225.2 30.1,210.2 "/>
<g>
	<ellipse class="st7" cx="84.5" cy="155" rx="8.8" ry="8.8"/>
	<path class="st7" d="M76.2,127.4l-5,5.5h-8.7c-3,0-5.5,2.5-5.5,5.5v33.2c0,3,2.5,5.5,5.5,5.5h44.1c3,0,5.5-2.5,5.5-5.5v-33.2
		c0-3-2.5-5.5-5.5-5.5h-8.7l-5-5.5C92.9,127.4,76.2,127.4,76.2,127.4z M84.5,168.8c-7.6,0-13.8-6.2-13.8-13.8s6.2-13.8,13.8-13.8
		c7.6,0,13.8,6.2,13.8,13.8S92.1,168.8,84.5,168.8z"/>
</g>
</svg>
