<?xml version="1.0" encoding="utf-8"?>
<!-- Generator: Adobe Illustrator 23.0.1, SVG Export Plug-In . SVG Version: 6.00 Build 0)  -->
<svg version="1.1" id="Layer_1" xmlns="http://www.w3.org/2000/svg" xmlns:xlink="http://www.w3.org/1999/xlink" x="0px" y="0px"
	 viewBox="0 0 1040 820" style="enable-background:new 0 0 1040 820;" xml:space="preserve">
<style type="text/css">
	.st0{fill:none;stroke:#DBDBDB;stroke-width:2;stroke-miterlimit:10;}
	.st1{fill:#DBDBDB;}
	.st2{fill:#F68757;}
	.st3{fill:#E76BE4;}
	.st4{fill:#46CD46;}
	.st5{fill:#A6A8AB;}
	.st6{fill:#FFFFFF;}
	.st7{fill:#C4C4C4;}
	.st8{fill:none;stroke:#A0A0A0;stroke-width:2;stroke-miterlimit:10;}
	.st9{fill:#929497;}
	.st10{fill:#BCBEC0;}
	.st11{fill:#FFFFFF;stroke:#CDCDCD;stroke-miterlimit:10;}
</style>
<g>
	<g>
		<g>
			<path class="st0" d="M743.7,652.5c0-36.7,194.8-204.5,120.1-204.5"/>
		</g>
		<g>
			<path class="st0" d="M781.7,652.5c0-62.4,204.3-182,74.5-182"/>
		</g>
		<g>
			<path class="st0" d="M818,652.5c0-76.9,206.4-143.3,57.5-143.3"/>
		</g>
		<g>
			<path class="st0" d="M261.1,191.7c0,60.8-105.4,61.3-105.4,120.4"/>
		</g>
		<g>
			<path class="st0" d="M300.7,191.7c0,65.4-115,70.7-115,120.4"/>
		</g>
		<g>
			<path class="st0" d="M339.8,191.7c0,81.7-124.1,70.7-124.1,120.4"/>
		</g>
	</g>
</g>
<g>
	<path class="st1" d="M818.2,645.6h-145v127.9l38.1,29.6c1.5,0.9,3.2,1.3,4.9,1.3h132.6c5.4,0,9.8-4.4,9.8-9.8V682.2
		c0-3.5-1.9-6.8-5-8.5L818.2,645.6z"/>
</g>
<g>
	<path class="st1" d="M341.6,36.8h-145v127.9l38.1,29.6c1.5,0.9,3.2,1.3,4.9,1.3h132.6c5.4,0,9.8-4.4,9.8-9.8V73.5
		c0-3.5-1.9-6.8-5-8.5L341.6,36.8z"/>
</g>
<path class="st2" d="M785.1,619c-4.5,0-8.1,1.8-8.1,3.4v1.2v9.7v1.2c0,1.6,3.6,3.4,8.1,3.4s8.1-1.8,8.1-3.4v-1.2v-9.7v-1.2
	C793.3,620.8,789.6,619,785.1,619z"/>
<path class="st3" d="M748.2,619c-4.5,0-8.1,1.8-8.1,3.4v1.2v9.7v1.2c0,1.6,3.6,3.4,8.1,3.4s8.1-1.8,8.1-3.4v-1.2v-9.7v-1.2
	C756.4,620.8,752.7,619,748.2,619z"/>
<path class="st4" d="M711.4,619c-4.5,0-8.1,1.8-8.1,3.4v1.2v9.7v1.2c0,1.6,3.6,3.4,8.1,3.4s8.1-1.8,8.1-3.4v-1.2v-9.7v-1.2
	C719.5,620.8,715.9,619,711.4,619z"/>
<path class="st3" d="M186.7,281.1c-4.5,0-8.1,1.8-8.1,3.4v1.2v9.7v1.2c0,1.6,3.6,3.4,8.1,3.4s8.1-1.8,8.1-3.4v-1.2v-9.7v-1.2
	C194.8,282.9,191.2,281.1,186.7,281.1z"/>
<path class="st4" d="M156.7,281.1c-4.5,0-8.1,1.8-8.1,3.4v1.2v9.7v1.2c0,1.6,3.6,3.4,8.1,3.4s8.1-1.8,8.1-3.4v-1.2v-9.7v-1.2
	C164.8,282.9,161.2,281.1,156.7,281.1z"/>
<g>
	<g>
		<polygon class="st5" points="801.1,773.5 673.2,773.5 673.2,645.6 690.3,628.4 818.2,628.4 818.2,756.3 		"/>
		<rect x="690.3" y="628.4" class="st6" width="127.9" height="127.9"/>
		<polygon class="st7" points="690.3,628.4 673.2,645.6 673.2,773.5 690.3,756.3 		"/>
	</g>
	<path id="XMLID_14_" class="st5" d="M722.4,681.7V703h14.2l17.7,17.7V664l-17.7,17.7H722.4z M770.2,692.4c0-6.3-3.6-11.7-8.9-14.3
		v28.5C766.6,704,770.2,698.6,770.2,692.4z M761.3,661.3v7.3c10.2,3,17.7,12.5,17.7,23.8c0,11.2-7.5,20.7-17.7,23.8v7.3
		c14.2-3.2,24.8-15.9,24.8-31.1S775.5,664.5,761.3,661.3z"/>
</g>
<path class="st3" d="M541.5,412.5c-4.5,0-8.1,1.8-8.1,3.4v1.2v9.7v1.2c0,1.6,3.6,3.4,8.1,3.4s8.1-1.8,8.1-3.4v-1.2v-9.7v-1.2
	C549.6,414.3,546,412.5,541.5,412.5z"/>
<path class="st4" d="M363.2,409.5c-4.5,0-8.1,1.8-8.1,3.4v1.2v9.7v1.2c0,1.6,3.6,3.4,8.1,3.4s8.1-1.8,8.1-3.4v-1.2v-9.7v-1.2
	C371.4,411.3,367.7,409.5,363.2,409.5z"/>
<path class="st8" d="M253.2,378.1c-7.6,27.8,110,5.4,110,31.4"/>
<path class="st8" d="M485.4,375.9c0,19.8,56.1,12.5,56.1,36.7"/>
<path class="st8" d="M687.7,377.6c6.1,13.3,12.5,19.4,12.5,36.4"/>
<ellipse class="st9" cx="268.4" cy="158.1" rx="3.9" ry="1.1"/>
<ellipse class="st9" cx="307.5" cy="158.1" rx="3.9" ry="1.1"/>
<ellipse class="st9" cx="228.7" cy="158.1" rx="3.9" ry="1.1"/>
<g>
	<path class="st8" d="M307.5,158.1c0,81.7-93.8,82.8-93.8,132.5"/>
	<path class="st8" d="M711.4,619c0-36.7,223.5-182.8,148.8-182.8"/>
	<path class="st8" d="M749.4,619c0-62.4,243.4-158.3,113.6-158.3"/>
	<path class="st8" d="M785.7,619c0-76.9,230.8-114.9,81.9-114.9"/>
	<path class="st8" d="M228.7,158.1c0,60.8-72.1,63.9-72.1,123"/>
	<path class="st8" d="M268.4,158.1c0,65.4-81.7,73.3-81.7,123"/>
</g>
<g>
	<g>
		<polygon class="st5" points="324.5,164.8 196.6,164.8 196.6,36.8 213.7,19.7 341.6,19.7 341.6,147.6 		"/>
		<rect x="213.7" y="19.7" class="st6" width="127.9" height="127.9"/>
		<polygon class="st7" points="213.7,19.7 196.6,36.8 196.6,164.8 213.7,147.6 		"/>
	</g>
	<g>
		<g>
			<ellipse class="st5" cx="275.8" cy="84.7" rx="10.1" ry="10.1"/>
			<path class="st5" d="M266.4,53.1l-5.8,6.3h-10c-3.5,0-6.3,2.8-6.3,6.3v37.9c0,3.5,2.8,6.3,6.3,6.3H301c3.5,0,6.3-2.8,6.3-6.3
				V65.7c0-3.5-2.8-6.3-6.3-6.3h-10l-5.8-6.3H266.4z M275.8,100.4c-8.7,0-15.7-7.1-15.7-15.8s7-15.8,15.7-15.8s15.7,7.1,15.7,15.8
				S284.5,100.4,275.8,100.4z"/>
		</g>
	</g>
</g>
<path class="st2" d="M212.7,288.8c-4-2-8.1-1.9-8.8-0.5l-0.5,1.1l-4.2,8.7l-0.5,1.1c-0.7,1.4,1.7,4.6,5.8,6.6s8.1,1.9,8.8,0.5
	l0.5-1.1l4.2-8.7l0.5-1.1C219.2,294,216.8,290.8,212.7,288.8z"/>
<path class="st2" d="M700.2,412.5c-4.5,0-8.1,1.8-8.1,3.4v1.2v9.7v1.2c0,1.6,3.6,3.4,8.1,3.4s8.1-1.8,8.1-3.4v-1.2v-9.7v-1.2
	C708.3,414.3,704.7,412.5,700.2,412.5z"/>
<g>
	<g>
		<path class="st10" d="M215.7,337.3c0,7.4-1.6,14.1-4.9,20c-3.3,5.9-7.4,10.4-12.4,13.6c-4.2,2.7-8.7,4.4-13.6,5.2
			s-10.1,1.2-15.6,1.2h-25v-80H169c5.6,0,10.9,0.4,15.8,1.1c4.9,0.7,9.5,2.5,13.8,5.2c5.3,3.4,9.4,7.9,12.5,13.6
			C214.2,322.8,215.7,329.6,215.7,337.3z M195.1,337.1c0-5.3-0.9-9.8-2.7-13.5c-1.8-3.7-4.6-6.7-8.4-8.8c-2.7-1.5-5.6-2.3-8.6-2.5
			c-3-0.1-6.6-0.2-10.7-0.2h-0.4v50.1h0.4c4.5,0,8.3-0.1,11.4-0.2c3.1-0.2,6-1.1,8.8-2.9c3.3-2.1,5.8-4.9,7.5-8.6
			S195.1,342.4,195.1,337.1z"/>
		<path class="st10" d="M227.6,377.2v-80h54.1v15.3h-34.1v14H279v15.3h-31.4V362h34.1v15.3L227.6,377.2L227.6,377.2z"/>
		<path class="st10" d="M352.2,378.6c-6.1,0-11.5-0.6-16.1-1.8c-4.6-1.2-8.9-2.6-12.9-4.4v-19h1.8c4,3.4,8.4,6,13.3,7.8
			s9.5,2.7,14.1,2.7c1.1,0,2.7-0.1,4.5-0.4c1.9-0.3,3.4-0.6,4.5-1.2c1.4-0.6,2.6-1.5,3.5-2.6c1-1.1,1.5-2.5,1.5-4.3
			c0-2-0.8-3.6-2.4-4.9c-1.6-1.3-3.5-2.2-5.6-2.7c-2.7-0.7-5.6-1.4-8.7-2s-6-1.4-8.7-2.4c-6.2-2.2-10.6-5.1-13.3-8.8
			c-2.7-3.7-4-8.3-4-13.9c0-7.5,3.2-13.5,9.5-18.2c6.3-4.6,14.3-7,23.7-7c4.8,0,9.5,0.5,14.2,1.5s8.9,2.3,12.6,3.9v18.3h-1.8
			c-3-2.5-6.6-4.7-10.9-6.4c-4.3-1.8-8.7-2.6-13.2-2.6c-1.8,0-3.3,0.1-4.7,0.4c-1.4,0.3-2.9,0.7-4.4,1.5c-1.3,0.6-2.3,1.4-3.2,2.6
			s-1.4,2.4-1.4,3.8c0,2,0.7,3.7,2.2,4.9c1.5,1.2,4.3,2.3,8.4,3.2c2.7,0.6,5.3,1.2,7.8,1.8c2.5,0.6,5.1,1.4,8,2.4
			c5.5,2,9.7,4.7,12.4,8.1c2.7,3.4,4.1,7.9,4.1,13.4c0,7.9-3.1,14.3-9.4,19.2C371.3,376.2,362.8,378.6,352.2,378.6z"/>
		<path class="st10" d="M450.5,377.2h-53.4v-80h20.1v64.7h33.3V377.2z"/>
		<path class="st10" d="M499.9,377.2h-43.1v-14h11.5v-52h-11.5v-14h43.1v14h-11.5v52h11.5V377.2z"/>
		<path class="st10" d="M595,377.2h-20v-53l-14.6,34.2h-13.7l-14.6-34.2v53h-18.9v-80h23.1l17.7,39.5l17.7-39.5H595V377.2z"/>
		<path class="st10" d="M693.2,377.2h-20v-53l-14.6,34.2H645l-14.6-34.2v53h-18.9v-80h23.1l17.7,39.5l17.7-39.5h23.1v80H693.2z"/>
		<path class="st10" d="M709.7,377.2v-80h54.1v15.3h-34.1v14h31.4v15.3h-31.4V362h34.1v15.3L709.7,377.2L709.7,377.2z"/>
		<path class="st10" d="M286.8,510.8c-12,0-21.5-3.6-28.6-10.9s-10.6-17.4-10.6-30.6c0-12.7,3.5-22.8,10.6-30.3s16.6-11.3,28.6-11.3
			c3.2,0,6.1,0.2,8.6,0.5c2.5,0.4,5,0.9,7.3,1.5c1.8,0.5,3.8,1.3,6,2.2c2.1,0.9,3.9,1.7,5.2,2.4v19.1h-2c-1-0.9-2.2-1.9-3.7-3.1
			s-3.1-2.4-5-3.5c-1.9-1.1-3.9-2.1-6.1-2.9s-4.6-1.2-7-1.2c-2.9,0-5.6,0.5-8,1.4s-4.7,2.5-6.9,4.8c-2,2-3.6,4.8-4.9,8.3
			s-1.9,7.6-1.9,12.3c0,5,0.7,9.2,2,12.5c1.3,3.4,3.1,6.1,5.2,8.2c2.1,2,4.4,3.5,7,4.4s5.1,1.3,7.7,1.3s5.2-0.4,7.6-1.3
			s4.4-1.9,6.1-2.9c1.8-1.1,3.4-2.2,4.7-3.4c1.4-1.1,2.5-2.2,3.5-3.1h1.8V504c-1.5,0.7-3.2,1.5-5.1,2.3c-1.9,0.9-3.9,1.6-6,2.2
			c-2.5,0.8-4.9,1.3-7,1.7C293.6,510.6,290.6,510.8,286.8,510.8z"/>
		<path class="st10" d="M398.5,469.2c0,12.9-3.5,23.1-10.4,30.5c-6.9,7.4-16.4,11.1-28.4,11.1c-12.1,0-21.5-3.8-28.4-11.3
			S321,481.9,321,469.1c0-12.9,3.4-23,10.3-30.5s16.3-11.2,28.4-11.2c12,0,21.5,3.7,28.4,11.1C395.1,446.1,398.5,456.3,398.5,469.2z
			 M377.8,469.2c0-4.8-0.5-8.8-1.5-12.2c-1-3.3-2.3-6.1-3.9-8.2c-1.7-2.2-3.7-3.8-5.8-4.7c-2.2-0.9-4.4-1.4-6.7-1.4
			c-2.5,0-4.7,0.4-6.7,1.3c-2,0.9-3.9,2.4-5.8,4.7c-1.6,2.1-3,4.8-4,8.3s-1.5,7.5-1.5,12.3c0,4.9,0.5,9,1.5,12.2c1,3.2,2.3,6,4,8.1
			c1.7,2.2,3.7,3.8,5.9,4.8c2.2,0.9,4.4,1.4,6.8,1.4s4.7-0.5,6.9-1.5c2.2-1,4.1-2.6,5.7-4.8c1.7-2.3,3-5,4-8.1
			C377.3,478.3,377.8,474.2,377.8,469.2z"/>
		<path class="st10" d="M492.1,509.2h-20v-53l-14.6,34.2h-13.7l-14.6-34.2v53h-18.9v-80h23.1l17.7,39.5l17.7-39.5h23.1v80H492.1z"/>
		<path class="st10" d="M570.2,454.5c0,3.7-0.6,7.3-1.8,10.6c-1.2,3.4-2.9,6.2-5.1,8.4c-1.4,1.4-2.9,2.7-4.5,3.9s-3.4,2.2-5.4,3
			s-4.1,1.5-6.4,1.9c-2.3,0.5-4.9,0.7-7.8,0.7h-10.5v26.2h-20.1v-80h31c4.6,0,8.6,0.4,12,1.3c3.3,0.8,6.4,2.2,9.1,4c3,2,5.3,4.7,7,8
			C569.4,445.9,570.2,449.8,570.2,454.5z M549.6,455c0-2.3-0.5-4.2-1.6-5.8c-1.1-1.6-2.4-2.7-3.9-3.4c-1.9-0.8-3.7-1.3-5.5-1.4
			c-1.7-0.1-4.1-0.2-7.1-0.2h-2.8v24h1.4c1.9,0,3.7,0,5.4-0.1c1.7,0,3.2-0.2,4.4-0.4c1.1-0.2,2.2-0.5,3.4-1s2.1-1.1,2.8-1.7
			c1.4-1.3,2.3-2.7,2.8-4.1C549.3,459.3,549.6,457.4,549.6,455z"/>
		<path class="st10" d="M613.3,510.9c-10.7,0-19-2.6-24.8-7.8c-5.8-5.2-8.7-12.8-8.7-22.8v-51.1h20.1v49.9c0,5.6,1,9.7,3.1,12.4
			s5.5,4.1,10.2,4.1c4.6,0,8-1.3,10.2-3.9s3.3-6.8,3.3-12.6v-49.9h20.1v51c0,9.8-2.8,17.4-8.5,22.7
			C632.7,508.2,624.3,510.9,613.3,510.9z"/>
		<path class="st10" d="M677.6,509.2v-64.7H654v-15.3h67.4v15.3h-23.6v64.7H677.6z"/>
		<path class="st10" d="M729.5,509.2v-80h54.1v15.3h-34.1v14h31.4v15.3h-31.4V494h34.1v15.3h-54.1V509.2z"/>
		<path class="st10" d="M871.2,509.2h-24.5l-22.3-29.3h-7.2v29.3h-20v-80h32.2c4.4,0,8.3,0.3,11.6,0.8c3.3,0.6,6.3,1.7,9.1,3.5
			c2.9,1.8,5.1,4.1,6.8,7c1.7,2.8,2.5,6.4,2.5,10.7c0,6.1-1.4,11.1-4.1,14.9c-2.8,3.8-6.4,6.8-11.1,9.1L871.2,509.2z M838.8,453.7
			c0-2-0.4-3.7-1.2-5.2s-2-2.6-3.8-3.4c-1.3-0.5-2.7-0.9-4.2-1s-3.5-0.2-5.7-0.2h-6.7v21.5h5.7c2.8,0,5.2-0.2,7.1-0.5
			c2-0.3,3.6-1.1,5-2.2c1.3-1,2.2-2.2,2.9-3.6C838.5,457.8,838.8,456,838.8,453.7z"/>
	</g>
	<g>
		
			<image style="overflow:visible;enable-background:new    ;" width="802" height="289" xlink:href="34196D83.png"  transform="matrix(1 0 0 1 118 265)">
		</image>
		<g>
			<g>
				<path class="st11" d="M222.7,337.7c0,7.4-1.6,14.1-4.9,20c-3.3,5.9-7.4,10.4-12.4,13.6c-4.2,2.7-8.7,4.4-13.6,5.2
					s-10.1,1.2-15.6,1.2h-25v-80H176c5.6,0,10.9,0.4,15.8,1.1c4.9,0.7,9.5,2.5,13.8,5.2c5.3,3.4,9.4,7.9,12.5,13.6
					C221.2,323.2,222.7,330,222.7,337.7z M202.1,337.5c0-5.3-0.9-9.8-2.7-13.5c-1.8-3.7-4.6-6.7-8.4-8.8c-2.7-1.5-5.6-2.3-8.6-2.5
					c-3-0.1-6.6-0.2-10.7-0.2h-0.4v50.1h0.4c4.5,0,8.3-0.1,11.4-0.2c3.1-0.2,6-1.1,8.8-2.9c3.3-2.1,5.8-4.9,7.5-8.6
					C201.1,347.2,202.1,342.8,202.1,337.5z"/>
				<path class="st11" d="M234.6,377.6v-80h54.1v15.3h-34.1v14H286v15.3h-31.4v20.2h34.1v15.3h-54.1V377.6z"/>
				<path class="st11" d="M359.2,379c-6.1,0-11.5-0.6-16.1-1.8c-4.6-1.2-8.9-2.6-12.9-4.4v-19h1.8c4,3.4,8.4,6,13.3,7.8
					s9.5,2.7,14.1,2.7c1.1,0,2.7-0.1,4.5-0.4c1.9-0.3,3.4-0.6,4.5-1.2c1.4-0.6,2.6-1.5,3.5-2.6c1-1.1,1.5-2.5,1.5-4.3
					c0-2-0.8-3.6-2.4-4.9c-1.6-1.3-3.5-2.2-5.6-2.7c-2.7-0.7-5.6-1.4-8.7-2s-6-1.4-8.7-2.4c-6.2-2.2-10.6-5.1-13.3-8.8
					c-2.7-3.7-4-8.3-4-13.9c0-7.5,3.2-13.5,9.5-18.2c6.3-4.6,14.3-7,23.7-7c4.8,0,9.5,0.5,14.2,1.5s8.9,2.3,12.6,3.9v18.3h-1.8
					c-3-2.5-6.6-4.7-10.9-6.4c-4.3-1.8-8.7-2.6-13.2-2.6c-1.8,0-3.3,0.1-4.7,0.4c-1.4,0.3-2.9,0.7-4.4,1.5c-1.3,0.6-2.3,1.4-3.2,2.6
					s-1.4,2.4-1.4,3.8c0,2,0.7,3.7,2.2,4.9c1.5,1.2,4.3,2.3,8.4,3.2c2.7,0.6,5.3,1.2,7.8,1.8s5.1,1.4,8,2.4c5.5,2,9.7,4.7,12.4,8.1
					c2.7,3.4,4.1,7.9,4.1,13.4c0,7.9-3.1,14.3-9.4,19.2C378.3,376.6,369.8,379,359.2,379z"/>
				<path class="st11" d="M457.5,377.6h-53.4v-80h20.1v64.7h33.3V377.6z"/>
				<path class="st11" d="M506.9,377.6h-43.1v-14h11.5v-52h-11.5v-14h43.1v14h-11.5v52h11.5V377.6z"/>
				<path class="st11" d="M602,377.6h-20v-53l-14.6,34.2h-13.7l-14.6-34.2v53h-18.9v-80h23.1l17.7,39.5l17.7-39.5H602V377.6z"/>
				<path class="st11" d="M700.2,377.6h-20v-53l-14.6,34.2H652l-14.6-34.2v53h-18.9v-80h23.1l17.7,39.5l17.7-39.5h23.1v80H700.2z"/>
				<path class="st11" d="M716.7,377.6v-80h54.1v15.3h-34.1v14h31.4v15.3h-31.4v20.2h34.1v15.3h-54.1V377.6z"/>
				<path class="st11" d="M293.8,511.2c-12,0-21.5-3.6-28.6-10.9s-10.6-17.4-10.6-30.6c0-12.7,3.5-22.8,10.6-30.3
					s16.6-11.3,28.6-11.3c3.2,0,6.1,0.2,8.6,0.5c2.5,0.4,5,0.9,7.3,1.5c1.8,0.5,3.8,1.3,6,2.2c2.1,0.9,3.9,1.7,5.2,2.4v19.1h-2
					c-1-0.9-2.2-1.9-3.7-3.1s-3.1-2.4-5-3.5c-1.9-1.1-3.9-2.1-6.1-2.9s-4.6-1.2-7-1.2c-2.9,0-5.6,0.5-8,1.4s-4.7,2.5-6.9,4.8
					c-2,2-3.6,4.8-4.9,8.3s-1.9,7.6-1.9,12.3c0,5,0.7,9.2,2,12.5c1.3,3.4,3.1,6.1,5.2,8.2c2.1,2,4.4,3.5,7,4.4s5.1,1.3,7.7,1.3
					s5.2-0.4,7.6-1.3s4.4-1.9,6.1-2.9c1.8-1.1,3.4-2.2,4.7-3.4c1.4-1.1,2.5-2.2,3.5-3.1h1.8v18.8c-1.5,0.7-3.2,1.5-5.1,2.3
					c-1.9,0.9-3.9,1.6-6,2.2c-2.5,0.8-4.9,1.3-7,1.7C300.6,511,297.6,511.2,293.8,511.2z"/>
				<path class="st11" d="M405.5,469.6c0,12.9-3.5,23.1-10.4,30.5s-16.4,11.1-28.4,11.1c-12.1,0-21.5-3.8-28.4-11.3
					S328,482.3,328,469.5c0-12.9,3.4-23,10.3-30.5s16.3-11.2,28.4-11.2c12,0,21.5,3.7,28.4,11.1
					C402.1,446.5,405.5,456.7,405.5,469.6z M384.8,469.6c0-4.8-0.5-8.8-1.5-12.2c-1-3.3-2.3-6.1-3.9-8.2c-1.7-2.2-3.7-3.8-5.8-4.7
					c-2.2-0.9-4.4-1.4-6.7-1.4c-2.5,0-4.7,0.4-6.7,1.3c-2,0.9-3.9,2.4-5.8,4.7c-1.6,2.1-3,4.8-4,8.3s-1.5,7.5-1.5,12.3
					c0,4.9,0.5,9,1.5,12.2s2.3,6,4,8.1c1.7,2.2,3.7,3.8,5.9,4.8c2.2,0.9,4.4,1.4,6.8,1.4s4.7-0.5,6.9-1.5c2.2-1,4.1-2.6,5.7-4.8
					c1.7-2.3,3-5,4-8.1C384.3,478.7,384.8,474.6,384.8,469.6z"/>
				<path class="st11" d="M499.1,509.6h-20v-53l-14.6,34.2h-13.7l-14.6-34.2v53h-18.9v-80h23.1l17.7,39.5l17.7-39.5h23.1v80H499.1z"
					/>
				<path class="st11" d="M577.2,454.9c0,3.7-0.6,7.3-1.8,10.6c-1.2,3.4-2.9,6.2-5.1,8.4c-1.4,1.4-2.9,2.7-4.5,3.9s-3.4,2.2-5.4,3
					s-4.1,1.5-6.4,1.9c-2.3,0.5-4.9,0.7-7.8,0.7h-10.5v26.2h-20.1v-80h31c4.6,0,8.6,0.4,12,1.3c3.3,0.8,6.4,2.2,9.1,4
					c3,2,5.3,4.7,7,8C576.4,446.3,577.2,450.2,577.2,454.9z M556.6,455.4c0-2.3-0.5-4.2-1.6-5.8c-1.1-1.6-2.4-2.7-3.9-3.4
					c-1.9-0.8-3.7-1.3-5.5-1.4c-1.7-0.1-4.1-0.2-7.1-0.2h-2.8v24h1.4c1.9,0,3.7,0,5.4-0.1c1.7,0,3.2-0.2,4.4-0.4
					c1.1-0.2,2.2-0.5,3.4-1s2.1-1.1,2.8-1.7c1.4-1.3,2.3-2.7,2.8-4.1C556.3,459.7,556.6,457.8,556.6,455.4z"/>
				<path class="st11" d="M620.3,511.3c-10.7,0-19-2.6-24.8-7.8c-5.8-5.2-8.7-12.8-8.7-22.8v-51.1h20.1v49.9c0,5.6,1,9.7,3.1,12.4
					c2.1,2.7,5.5,4.1,10.2,4.1c4.6,0,8-1.3,10.2-3.9s3.3-6.8,3.3-12.6v-49.9h20.1v51c0,9.8-2.8,17.4-8.5,22.7
					C639.7,508.6,631.3,511.3,620.3,511.3z"/>
				<path class="st11" d="M684.6,509.6v-64.7H661v-15.3h67.4v15.3h-23.6v64.7H684.6z"/>
				<path class="st11" d="M736.5,509.6v-80h54.1v15.3h-34.1v14h31.4v15.3h-31.4v20.2h34.1v15.3h-54.1V509.6z"/>
				<path class="st11" d="M878.2,509.6h-24.5l-22.3-29.3h-7.2v29.3h-20v-80h32.2c4.4,0,8.3,0.3,11.6,0.8c3.3,0.6,6.3,1.7,9.1,3.5
					c2.9,1.8,5.1,4.1,6.8,7c1.7,2.8,2.5,6.4,2.5,10.7c0,6.1-1.4,11.1-4.1,14.9c-2.8,3.8-6.4,6.8-11.1,9.1L878.2,509.6z M845.8,454.1
					c0-2-0.4-3.7-1.2-5.2s-2-2.6-3.8-3.4c-1.3-0.5-2.7-0.9-4.2-1c-1.5-0.1-3.5-0.2-5.7-0.2h-6.7v21.5h5.7c2.8,0,5.2-0.2,7.1-0.5
					c2-0.3,3.6-1.1,5-2.2c1.3-1,2.2-2.2,2.9-3.6C845.5,458.2,845.8,456.4,845.8,454.1z"/>
			</g>
		</g>
	</g>
</g>
</svg>
